# xmcd CD database file
#
# Track frame offsets:
#	150
#	15207
#	27732
#	46750
#	80472
#	108115
#	117917
#	143580
#	161492
#	172245
#	186030
#	217815
#	230495
#	244712
#	259985
#	276765
#	301350
#	320687
#
# Disc length: 4481 seconds
#
# Revision: 0
# Processed by: cddbd v1.4PL0 Copyright (c) Steve Scherf et al.
# Submitted via: CDex 1.51
#
DISCID=ee117f12
DTITLE=Various Artist - Root Down! (Messin Around Presents)
DYEAR=1900
DGENRE=Jazz
TTITLE0=Lalo Schifrin - Jim On The move
TTITLE1=Kenny Burrell - Burning Spear
TTITLE2=Johnny Pate - Outrageous
TTITLE3=Jimmy Smith - Root Down (And Get It)
TTITLE4=Gato Barbieri - Viva Emiliano Zapati
TTITLE5=Jon Hendricks - Cloudburst (Live from the Trident)
TTITLE6=Kai Winding - The Sidewinder
TTITLE7=The JB's - Gimme Some More (Very Live)
TTITLE8=The Just Brothers - Sliced Tomatoes
TTITLE9=Gladys Knight and The Pips - Got Myself A Good Man
TTITLE10=Roy Ayres Ubiquity - Party Sex
TTITLE11=The Groove Connection - What It Is
TTITLE12=Herb Albert and the Tijuana Brass - Sunny
TTITLE13=Cal Tjader - Song Of The Yellow river
TTITLE14=The Dave Pike Set - Mathar
TTITLE15=Roy Hargrove's Crisol - Afrodisia (Snowboy Remix)
TTITLE16=Willie Bobo - La Descarga Del Bobo
TTITLE17=George Duke - Au Right
EXTD=
EXTT0=
EXTT1=
EXTT2=
EXTT3=
EXTT4=
EXTT5=
EXTT6=
EXTT7=
EXTT8=
EXTT9=
EXTT10=
EXTT11=
EXTT12=
EXTT13=
EXTT14=
EXTT15=
EXTT16=
EXTT17=
PLAYORDER=
